# xmcd
#
# Track frame offsets: 
#        150
#        32442
#        60194
#        76332
#        93794
#        113034
#        130774
#        158150
#        178280
#        195508
#        222039
#        252216
#        271333
#        290141
#        315256
#        335769
#
# Disc length: 4702 seconds
#
# Revision: 1
# Processed by: cddbd v1.5.2PL0 Copyright (c) Steve Scherf et al.
# Submitted via: ExactAudioCopyFreeDBPlugin 1.0
#
DISCID=d5125c10
DTITLE=Terry Pratchett - Schweinsgalopp [CD 5 von 6)
DYEAR=2007
DGENRE=Speech
TTITLE0=057 An dem Ort mit dem Himmel ganz oben
TTITLE1=058 Ruß fiel durch den Schornstein
TTITLE2=059 Weit oben schrie jemand
TTITLE3=060 Susanne näherte sich dem Haufen
TTITLE4=061 Kommt nicht in Frage
TTITLE5=062 Die Männer wechselten stummer Blicke
TTITLE6=063 Mittlerer Dave und Katzenauge
TTITLE7=064 Die Schnürsenkel von Katzenauges Stiefel waren gerissen
TTITLE8=065 Sideney stülpte einen grünen Filter über die Laterne
TTITLE9=066 Violet und Gallig hasteten die Treppe hinunter
TTITLE10=067 Gallig bückte sich
TTITLE11=068 Susanne schlich die Treppe hinauf
TTITLE12=069 Susanne versuchte unsichtbar zu werden
TTITLE13=070 Plötzlich stand Kaffetrinken ganz dicht vor Susanne
TTITLE14=071 Die grauen Flecken flossen über den Boden
TTITLE15=072 Susanne sah wie er das Schwertheft in den Mund nahm
EXTD=gelesen von Rufus Beck
EXTT0=
EXTT1=
EXTT2=
EXTT3=
EXTT4=
EXTT5=
EXTT6=
EXTT7=
EXTT8=
EXTT9=
EXTT10=
EXTT11=
EXTT12=
EXTT13=
EXTT14=
EXTT15=
PLAYORDER=
